Coordinates
version=1
nRows=26
nColumns=30
inDegrees=yes

Units are S.I. units (second, meters, Newtons, ...)
Angles are in degrees.

endheader
time	floatyaw	floatroll	floatpitch	floatx	floaty	floatz	pro_sup_l	deviation_l	flexion_l	cmc_flexion_l	cmc_abduction_l	mp_flexion_l	ip_flexion_l	2mcp_flexion_l	2mcp_abduction_l	2pm_flexion_l	2md_flexion_l	3mcp_flexion_l	3mcp_abduction_l	3pm_flexion_l	3md_flexion_l	4mcp_flexion_l	4mcp_abduction_l	4pm_flexion_l	4md_flexion_l	5mcp_flexion_l	5mcp_abduction_l	5pm_flexion_l	5md_flexion_l
0.005000	3.029614	-4.103828	101.268469	0.063121	-0.159796	0.054677	103.402154	17.407379	-12.400489	6.124627	13.809538	-29.524270	-46.720186	66.306369	8.002483	56.848964	41.876400	65.871870	4.535081	69.253365	45.776202	75.766346	-5.407358	83.432403	49.190451	82.177874	-5.519141	82.124745	29.818747
0.015000	3.029614	-4.103828	101.268469	0.063374	-0.157611	0.054322	102.967583	17.412453	-13.266877	6.115130	14.014882	-29.598566	-46.926956	66.561828	8.100671	56.606330	41.822643	66.058990	4.540107	69.069828	45.868655	75.854399	-5.424415	83.552997	49.297418	82.204412	-5.547742	82.459309	29.723775
0.025000	3.029614	-4.103828	101.268469	0.063617	-0.155007	0.054044	102.727297	17.454687	-14.129404	6.088223	14.155776	-29.676742	-47.079653	66.930947	8.207413	56.202219	41.714687	66.313606	4.546125	68.754437	45.963864	75.941163	-5.440660	83.631795	49.364809	82.229451	-5.589237	82.731641	29.629875
0.035000	3.029614	-4.103828	101.268469	0.063838	-0.152265	0.053796	102.690698	17.585709	-14.888395	6.032336	14.218331	-29.738922	-47.148236	67.392623	8.313450	55.621754	41.583127	66.624155	4.550299	68.322153	46.075265	76.044818	-5.454741	83.671605	49.379852	82.264920	-5.629178	82.949081	29.526265
0.045000	3.029614	-4.103828	101.268469	0.064028	-0.149736	0.053519	102.812252	17.845370	-15.466262	5.945002	14.192938	-29.762732	-47.110757	67.890629	8.408289	54.901655	41.481667	66.960194	4.551649	67.819212	46.209930	76.173215	-5.465616	83.674360	49.339669	82.310435	-5.660106	83.108667	29.418814
0.055000	3.029614	-4.103828	101.268469	0.064188	-0.147734	0.053165	103.003250	18.237827	-15.830603	5.834671	14.088398	-29.735312	-46.969789	68.344737	8.482159	54.130033	41.465807	67.278534	4.551673	67.311920	46.362636	76.319318	-5.473170	83.641975	49.254338	82.353499	-5.683198	83.201630	29.327186
0.065000	3.029614	-4.103828	101.268469	0.064320	-0.146430	0.052730	103.169454	18.721504	-15.999132	5.717190	13.933828	-29.661582	-46.758728	68.675555	8.528220	53.424197	41.562968	67.533965	4.553359	66.867969	46.515162	76.461687	-5.478171	83.579568	49.146769	82.377057	-5.704328	83.221091	29.273894
0.075000	3.029614	-4.103828	101.268469	0.064421	-0.145805	0.052256	103.252855	19.220849	-16.025854	5.609837	13.766243	-29.562727	-46.530029	68.833072	8.543970	52.894172	41.749968	67.690781	4.559220	66.538281	46.640353	76.570498	-5.481511	83.497683	49.046337	82.369093	-5.728186	83.166511	29.273799
0.085000	3.029614	-4.103828	101.268469	0.064487	-0.145682	0.051814	103.249274	19.655805	-15.976971	5.525355	13.613608	-29.464693	-46.330323	68.815443	8.531005	52.605037	41.954401	67.732808	4.569801	66.345143	46.709633	76.618901	-5.483322	83.410280	48.977068	82.328711	-5.754845	83.043446	29.329719
0.095000	3.029614	-4.103828	101.268469	0.064516	-0.145817	0.051463	103.191065	19.974117	-15.907883	5.467541	13.485690	-29.384081	-46.178175	68.668298	8.493652	52.553328	42.084249	67.669445	4.583613	66.278790	46.702491	76.595872	-5.482744	83.329012	48.946468	82.266264	-5.780420	82.861785	29.433630
0.105000	3.029614	-4.103828	101.268469	0.064515	-0.145994	0.051220	103.111472	20.169135	-15.849303	5.430379	13.375889	-29.321179	-46.059183	68.463822	8.437940	52.670658	42.071015	67.533873	4.598178	66.303229	46.615341	76.513334	-5.478644	83.258314	48.942775	82.198521	-5.800239	82.635911	29.570349
0.115000	3.029614	-4.103828	101.268469	0.064498	-0.146091	0.051051	103.019856	20.274494	-15.805281	5.402409	13.267531	-29.264592	-45.941119	68.269125	8.371530	52.857014	41.900775	67.371482	4.611287	66.370680	46.465554	76.402074	-5.470745	83.195830	48.943737	82.141636	-5.811794	82.386926	29.722138
0.125000	3.029614	-4.103828	101.268469	0.064479	-0.146081	0.050901	102.904631	20.341372	-15.761797	5.374609	13.138343	-29.203251	-45.798616	68.119755	8.303715	53.028442	41.615555	67.222645	4.621795	66.439841	46.287416	76.297560	-5.460277	83.138141	48.931989	82.104890	-5.815870	82.143562	29.873698
0.135000	3.029614	-4.103828	101.268469	0.064467	-0.146001	0.050723	102.755648	20.413375	-15.701136	5.346313	12.963516	-29.136000	-45.630775	68.012126	8.244079	53.151506	41.287763	67.108887	4.629759	66.489223	46.120829	76.223702	-5.449551	83.086754	48.906617	82.087697	-5.815931	81.937749	30.015702
0.145000	3.029614	-4.103828	101.268469	0.064460	-0.145902	0.050505	102.582793	20.512268	-15.614664	5.324273	12.721061	-29.071134	-45.459831	67.917406	8.199643	53.243908	40.986140	67.029798	4.636105	66.518737	45.997522	76.184234	-5.440777	83.048775	48.882392	82.081202	-5.816517	81.794273	30.144739
0.155000	3.029614	-4.103828	101.268469	0.064451	-0.145819	0.050263	102.414345	20.638158	-15.507543	5.315417	12.400330	-29.017225	-45.312712	67.805884	8.172104	53.344488	40.752217	66.970873	4.642054	66.540168	45.930908	76.166093	-5.434990	83.031375	48.877309	82.073677	-5.821387	81.719497	30.260155
0.165000	3.029614	-4.103828	101.268469	0.064432	-0.145764	0.050026	102.278281	20.778499	-15.394184	5.319367	12.009643	-28.974246	-45.200321	67.665608	8.157304	53.476780	40.595284	66.915900	4.648566	66.563873	45.914547	76.150742	-5.431797	83.034675	48.898723	82.056676	-5.832107	81.697006	30.360753
0.175000	3.029614	-4.103828	101.268469	0.064396	-0.145728	0.049813	102.183729	20.917760	-15.289390	5.326986	11.576671	-28.932897	-45.110078	67.505803	8.147584	53.631053	40.501796	66.856212	4.656071	66.590065	45.929939	76.124768	-5.429954	83.048851	48.939104	82.028199	-5.847801	81.694324	30.443958
0.185000	3.029614	-4.103828	101.268469	0.064343	-0.145702	0.049628	102.117394	21.043002	-15.201987	5.325990	11.138459	-28.881769	-45.015402	67.347111	8.135507	53.772617	40.449550	66.792592	4.664604	66.608834	45.958675	76.083547	-5.428201	83.057608	48.983473	81.991178	-5.866346	81.677250	30.507534
0.195000	3.029614	-4.103828	101.268469	0.064273	-0.145679	0.049464	102.055979	21.145390	-15.134019	5.309041	10.725522	-28.815522	-44.893056	67.207677	8.116615	53.865538	40.418739	66.730627	4.674121	66.607207	45.991282	76.028169	-5.425842	83.045379	49.020951	81.948992	-5.886285	81.623401	30.551946
0.205000	3.029614	-4.103828	101.268469	0.064186	-0.145659	0.049315	101.983700	21.219966	-15.083626	5.278347	10.349777	-28.737814	-44.736282	67.093447	8.089987	53.894334	40.396958	66.673779	4.684704	66.577801	46.028232	75.960258	-5.422933	83.003751	49.051278	81.901619	-5.908149	81.528075	30.581526
0.215000	3.029614	-4.103828	101.268469	0.064084	-0.145645	0.049184	101.902371	21.265542	-15.047897	5.244063	10.003656	-28.658163	-44.557281	66.996194	8.057250	53.872217	40.379097	66.619056	4.696544	66.523807	46.074491	75.879189	-5.420177	82.934208	49.082574	81.845146	-5.934240	81.401004	30.603955
0.225000	3.029614	-4.103828	101.268469	0.063967	-0.145638	0.049078	101.828413	21.284955	-15.023694	5.218421	9.669536	-28.586236	-44.379997	66.898059	8.021388	53.834678	40.364210	66.557805	4.709889	66.458381	46.132625	75.783091	-5.418616	82.847043	49.123035	81.774628	-5.967079	81.257536	30.629275
0.235000	3.029614	-4.103828	101.268469	0.063836	-0.145636	0.049003	101.779972	21.284873	-15.006865	5.210011	9.331780	-28.527620	-44.228478	66.779265	7.986076	53.824064	40.351451	66.480598	4.725075	66.399791	46.198872	75.671767	-5.419175	82.757748	49.172884	81.687951	-6.007719	81.109544	30.669916
0.245000	3.029614	-4.103828	101.268469	0.063699	-0.145637	0.048958	101.762843	21.274360	-14.991395	5.221507	8.983330	-28.482719	-44.116810	66.625798	7.955145	53.872511	40.337061	66.382778	4.742524	66.364928	46.263689	75.548678	-5.422228	82.682166	49.222290	81.587979	-6.055058	80.960170	30.741176
0.255000	3.029614	-4.103828	101.268469	0.063564	-0.145645	0.048928	101.764152	21.262346	-14.969719	5.250641	8.624548	-28.447858	-44.044284	66.434845	7.931621	53.989396	40.314101	66.267360	4.762535	66.363300	46.315743	75.420631	-5.427432	82.631459	49.256557	81.481720	-6.106458	80.803851	30.859140
